<?xml version="1.0" encoding="utf-8"?>
<!-- Generator: Adobe Illustrator 24.1.3, SVG Export Plug-In . SVG Version: 6.00 Build 0)  -->
<svg version="1.1" id="圖層_1" xmlns="http://www.w3.org/2000/svg" xmlns:xlink="http://www.w3.org/1999/xlink" x="0px" y="0px"
	 viewBox="0 -28 856 137.5" style="enable-background:new 0 0 856 109.44;" xml:space="preserve">
<g>
	<path d="M111.34,0h81.95v26.35h-50.38v9.75h39.17v23.2h-39.17v10.43h51.06v26.35h-82.63V0z"/>
	<g>
		<path d="M92.54,8.51c-3.75-2.84-8.26-4.96-13.52-6.38C73.76,0.71,65.33,0,58.93,0H21.93H15.7H0.66l5.58,27.18h9.45v68.91h32.12V70
			h10.43c6.5,0,15.01-0.76,20.36-2.27c5.35-1.51,9.95-3.77,13.79-6.79c3.84-3.02,6.82-6.75,8.92-11.18
			c2.1-4.44,3.16-9.54,3.16-15.31v-0.27c0-5.67-1.05-10.66-3.16-14.96C99.22,14.91,96.29,11.35,92.54,8.51z M72.77,36.51
			c0,3.48-1.26,6.11-3.78,7.89c-2.52,1.79-8.42,2.68-12.54,2.68h-8.65V25.67h8.79c4.3,0,10.22,0.89,12.6,2.68
			c2.38,1.78,3.57,4.42,3.57,7.89V36.51z"/>
		<polygon points="201.5,0 201.5,27.18 227.19,27.18 227.19,96.08 259.31,96.08 259.31,27.18 281.82,27.18 288.89,0 		"/>
	</g>
	<path d="M333,97.87c-9.79,0-18.92-1.35-27.38-4.05c-8.46-2.7-15.76-6.75-21.89-12.15l17.16-20.45c5.21,4.03,10.7,6.91,16.47,8.64
		c5.76,1.74,11.48,2.61,17.16,2.61c2.93,0,5.03-0.37,6.31-1.1c1.28-0.73,1.92-1.73,1.92-3.02v-0.27c0-1.37-0.94-2.52-2.81-3.43
		c-1.88-0.91-5.38-1.88-10.5-2.88c-5.4-1.1-10.55-2.38-15.44-3.84c-4.9-1.46-9.2-3.34-12.9-5.63c-3.7-2.28-6.66-5.15-8.85-8.58
		c-2.2-3.43-3.3-7.71-3.3-12.83v-0.28c0-4.57,0.89-8.83,2.68-12.76c1.78-3.93,4.39-7.36,7.82-10.3c3.43-2.93,7.69-5.21,12.76-6.86
		c5.08-1.65,10.91-2.47,17.5-2.47c9.33,0,17.5,1.1,24.5,3.3S367.5,7,373.08,11.39l-15.65,21.69c-4.58-3.3-9.4-5.7-14.48-7.21
		c-5.08-1.51-9.86-2.27-14.35-2.27c-2.38,0-4.14,0.37-5.28,1.1c-1.14,0.73-1.72,1.7-1.72,2.88v0.27c0,0.64,0.18,1.24,0.55,1.79
		c0.36,0.55,1.03,1.07,1.99,1.58c0.96,0.51,2.27,0.99,3.91,1.44c1.64,0.46,3.75,0.91,6.31,1.37c6.13,1.1,11.72,2.43,16.75,3.98
		c5.03,1.56,9.36,3.55,12.97,5.97c3.61,2.43,6.4,5.33,8.37,8.72c1.97,3.39,2.95,7.51,2.95,12.36v0.27c0,5.03-1.01,9.56-3.02,13.59
		c-2.02,4.03-4.85,7.43-8.51,10.23c-3.66,2.79-8.12,4.94-13.38,6.45C345.24,97.11,339.4,97.87,333,97.87z"/>
	<path d="M420.86,0h46.95c8.6,0,15.67,0.99,21.21,2.95c5.53,1.97,10,4.64,13.38,8.03c2.93,2.93,5.12,6.22,6.59,9.88
		c1.46,3.66,2.19,7.96,2.19,12.9v0.27c0,7.05-1.69,13-5.08,17.85s-8.01,8.69-13.86,11.53l22.37,32.67h-36.65l-18.12-27.45h-0.27
		h-6.59v27.45h-32.12V0z M466.85,45.71c3.84,0,6.86-0.82,9.06-2.47c2.19-1.65,3.29-3.93,3.29-6.87V36.1c0-3.11-1.1-5.42-3.29-6.93
		c-2.2-1.51-5.17-2.26-8.92-2.26h-14v18.8H466.85z"/>
	<path d="M678.09,98.14c-6.68,0-13.02-1.19-19.01-3.57c-5.99-2.38-11.28-5.76-15.85-10.16c-4.58-4.39-8.21-9.65-10.91-15.78
		c-2.7-6.13-4.05-12.9-4.05-20.32v-0.28c0-7.14,1.3-13.77,3.91-19.9c2.61-6.13,6.22-11.44,10.84-15.93
		c4.62-4.48,10.04-7.98,16.27-10.5c6.22-2.52,12.9-3.78,20.04-3.78c5.3,0,10.18,0.62,14.62,1.85c4.43,1.24,8.46,2.95,12.08,5.15
		c3.61,2.2,6.81,4.83,9.61,7.89c2.79,3.07,5.19,6.43,7.21,10.09l-26.49,15.51c-1.83-3.48-4.1-6.29-6.79-8.44
		c-2.7-2.15-6.25-3.22-10.64-3.22c-2.75,0-5.22,0.55-7.41,1.65c-2.2,1.1-4.08,2.61-5.63,4.53c-1.56,1.92-2.77,4.16-3.64,6.73
		s-1.3,5.26-1.3,8.1v0.27c0,3.11,0.43,5.97,1.3,8.58s2.1,4.85,3.7,6.73c1.6,1.88,3.5,3.34,5.7,4.39c2.2,1.05,4.62,1.58,7.28,1.58
		c4.57,0,8.24-1.12,10.98-3.36c2.75-2.24,5.12-5.15,7.14-8.72l26.49,14.96c-2.02,3.57-4.39,6.93-7.14,10.09
		c-2.75,3.16-5.97,5.9-9.67,8.24c-3.71,2.33-7.92,4.19-12.63,5.56C689.37,97.45,684.04,98.14,678.09,98.14z"/>
	<path d="M770.06,65.61l-8.24,10.02v20.45H729.7V0h32.12v35.96L789.14,0h37.34l-33.49,41.73l42.1,67.72h-38.29L770.06,65.61"/>
	<g>
		<path d="M835.67,1.75h-3.65V0h9.22v1.75h-3.64v9.39h-1.93V1.75z M843.29,11.13V0h1.65l4.59,4.7l4.55-4.7h1.67v11.13h-1.87V2.79
			l-4.26,4.39h-0.15l-4.32-4.39v8.34H843.29z"/>
	</g>
	<path d="M616.35,22.29C608.98,8.31,593.9-2.06,569.19-2.06c-25.74,0-39.91,11.96-47.16,26.19c-3.63,7.11-5.21,13.42-5.21,23.48
		c0,10.79,1.59,18.21,5.33,25.81c7.14,14.59,22.11,24.72,47.05,24.72c25.17,0,40.93-10.74,47.28-25.33
		c3.29-7.48,5.22-14.16,5.22-25.69C621.68,36.21,620.21,29.65,616.35,22.29z M600.69,41.21l-13.84,11.66
		c-0.81,0.68-1.17,1.77-0.91,2.8l4.29,17.58c0.59,2.43-2.06,4.36-4.19,3.03l-15.36-9.56c-0.9-0.56-2.04-0.56-2.94,0l-15.39,9.52
		c-2.13,1.32-4.78-0.62-4.18-3.05l4.34-17.57c0.25-1.03-0.1-2.12-0.91-2.8l-13.81-11.7c-1.91-1.62-0.89-4.74,1.6-4.92l18.05-1.3
		c1.06-0.08,1.98-0.75,2.38-1.73l6.86-16.75c0.95-2.32,4.23-2.31,5.17,0.01l6.81,16.77c0.4,0.98,1.32,1.66,2.38,1.73l18.05,1.35
		C601.6,36.48,602.61,39.6,600.69,41.21z"/>
</g>
</svg>
